<svg width="47" height="56" viewBox="0 0 47 56" fill="none" xmlns="http://www.w3.org/2000/svg">
<circle cx="23.5" cy="32.5" r="22" fill="white" stroke="black" stroke-width="3"/>
<path d="M17.3211 44C17.0545 44 16.9211 43.8667 16.9211 43.6V35.92C16.9211 35.824 16.9265 35.7387 16.9371 35.664C16.9585 35.5893 17.0065 35.5147 17.0811 35.44L19.1611 33.36V32.8L17.0331 30.672C16.9585 30.5867 16.9105 30.5067 16.8891 30.432C16.8785 30.3573 16.8731 30.2773 16.8731 30.192V23.072C16.8731 22.8053 17.0065 22.672 17.2731 22.672H21.8011C22.0678 22.672 22.2011 22.8053 22.2011 23.072V30.912H25.7851V23.072C25.7851 22.8053 25.9185 22.672 26.1851 22.672H30.7131C30.9798 22.672 31.1131 22.8053 31.1131 23.072V30.192C31.1131 30.2773 31.1078 30.3573 31.0971 30.432C31.0865 30.5067 31.0385 30.5867 30.9531 30.672L28.8251 32.8V33.36L30.9051 35.44C30.9905 35.5147 31.0385 35.5893 31.0491 35.664C31.0598 35.7387 31.0651 35.824 31.0651 35.92V43.6C31.0651 43.8667 30.9318 44 30.6651 44H26.1211C25.8545 44 25.7211 43.8667 25.7211 43.6V35.168H22.2651V43.6C22.2651 43.8667 22.1318 44 21.8651 44H17.3211Z" fill="black"/>
</svg>
