<svg width="484" height="175" viewBox="0 0 484 175" fill="none" xmlns="http://www.w3.org/2000/svg">
<mask id="path-1-outside-1_67_4285" maskUnits="userSpaceOnUse" x="72" y="28" width="341" height="49" fill="black">
<rect fill="white" x="72" y="28" width="341" height="49"/>
<path d="M76.1088 74C75.5754 74 75.3088 73.7333 75.3088 73.2V32.144C75.3088 31.6107 75.5754 31.344 76.1088 31.344H93.8048C94.3168 31.344 94.7434 31.5147 95.0848 31.856L101.485 38.256C101.847 38.6187 102.029 39.0453 102.029 39.536V50.576C102.029 51.088 101.847 51.5147 101.485 51.856L95.0848 58.256C94.7434 58.6187 94.3168 58.8 93.8048 58.8H85.9648V73.2C85.9648 73.7333 85.6981 74 85.1648 74H76.1088ZM88.3647 50.096C90.1354 50.096 91.3408 49.744 91.9808 49.04C92.6421 48.336 92.9728 47.0027 92.9728 45.04C92.9728 43.0773 92.6421 41.744 91.9808 41.04C91.3408 40.336 90.1354 39.984 88.3647 39.984C86.6154 39.984 85.4101 40.336 84.7488 41.04C84.1088 41.744 83.7888 43.0773 83.7888 45.04C83.7888 47.0027 84.1088 48.336 84.7488 49.04C85.4101 49.744 86.6154 50.096 88.3647 50.096ZM115.184 74C114.693 74 114.266 73.8187 113.904 73.456L107.504 67.056C107.141 66.7147 106.96 66.288 106.96 65.776V47.024C106.96 46.512 107.141 46.0853 107.504 45.744L113.904 39.344C114.266 38.9813 114.693 38.8 115.184 38.8H124.88C125.392 38.8 125.818 38.9813 126.16 39.344L132.56 45.744C132.922 46.0853 133.104 46.512 133.104 47.024V65.776C133.104 66.288 132.922 66.7147 132.56 67.056L126.16 73.456C125.818 73.8187 125.392 74 124.88 74H115.184ZM118.928 66.544H121.168C121.85 66.544 122.32 66.4053 122.576 66.128C122.832 65.8507 122.96 65.36 122.96 64.656V48.144C122.96 47.44 122.832 46.9493 122.576 46.672C122.32 46.3947 121.85 46.256 121.168 46.256H118.928C118.224 46.256 117.744 46.3947 117.488 46.672C117.232 46.9493 117.104 47.44 117.104 48.144V64.656C117.104 65.36 117.232 65.8507 117.488 66.128C117.744 66.4053 118.224 66.544 118.928 66.544ZM141.359 74C140.825 74 140.559 73.7333 140.559 73.2V39.6C140.559 39.0667 140.825 38.8 141.359 38.8H146.223C146.628 38.8 146.98 38.9813 147.279 39.344L150.415 42.96L153.903 39.184C154.137 38.928 154.436 38.8 154.799 38.8H158.255C158.788 38.8 159.055 39.0667 159.055 39.6V46.48C159.055 46.8213 159.033 47.056 158.991 47.184C158.948 47.2907 158.831 47.408 158.639 47.536L150.703 53.392V73.2C150.703 73.7333 150.436 74 149.903 74H141.359ZM170.231 74C169.741 74 169.314 73.8187 168.951 73.456L163.607 68.144C163.266 67.7813 163.095 67.3547 163.095 66.864V46.256H161.751C161.218 46.256 160.951 45.9893 160.951 45.456V39.6C160.951 39.0667 161.218 38.8 161.751 38.8H163.095V34.8C163.095 34.2667 163.362 34 163.895 34H172.407C172.941 34 173.207 34.2667 173.207 34.8V38.8H176.311C176.845 38.8 177.111 39.0667 177.111 39.6V45.456C177.111 45.9893 176.845 46.256 176.311 46.256H173.207V63.344C173.207 63.7493 173.335 64.08 173.591 64.336L176.727 67.504C176.941 67.696 177.047 68.016 177.047 68.464V73.2C177.047 73.7333 176.781 74 176.247 74H170.231ZM197.207 74C196.994 74 196.759 73.968 196.503 73.904C196.269 73.84 196.045 73.7867 195.831 73.744L190.135 72.336L183.607 70.16C182.967 69.9467 182.647 69.328 182.647 68.304V47.024C182.647 46.512 182.829 46.0853 183.191 45.744L189.591 39.344C189.954 38.9813 190.381 38.8 190.871 38.8H201.111C201.602 38.8 202.029 38.9813 202.391 39.344L208.791 45.744C209.154 46.0853 209.335 46.512 209.335 47.024V60.144H192.151L191.927 64.4L196.471 65.904L204.631 66.48C204.994 66.544 205.175 66.7893 205.175 67.216V73.2C205.175 73.7333 204.909 74 204.375 74H197.207ZM195.927 55.12H196.535C197.581 55.12 198.413 54.7253 199.031 53.936C199.671 53.1467 199.991 52.08 199.991 50.736V50.096C199.991 48.7733 199.671 47.7173 199.031 46.928C198.413 46.1387 197.581 45.744 196.535 45.744H195.895C194.871 45.744 194.05 46.1387 193.431 46.928C192.834 47.7173 192.535 48.7733 192.535 50.096V50.736C192.535 52.08 192.834 53.1467 193.431 53.936C194.05 54.7253 194.882 55.12 195.927 55.12ZM234.184 74C233.693 74 233.266 73.8187 232.904 73.456L226.504 67.056C226.141 66.7147 225.96 66.288 225.96 65.776V47.024C225.96 46.512 226.141 46.0853 226.504 45.744L232.904 39.344C233.266 38.9813 233.693 38.8 234.184 38.8H239.08C239.592 38.8 240.018 38.9813 240.36 39.344L241.96 40.944V32.144C241.96 31.6107 242.226 31.344 242.76 31.344H251.304C251.837 31.344 252.104 31.6107 252.104 32.144V73.2C252.104 73.7333 251.837 74 251.304 74H244.648C244.37 74 244.157 73.9467 244.008 73.84C243.88 73.7333 243.73 73.6053 243.56 73.456L241.96 71.856L240.36 73.456C240.018 73.8187 239.592 74 239.08 74H234.184ZM237.928 66.544H240.168C240.85 66.544 241.32 66.4053 241.576 66.128C241.832 65.8507 241.96 65.36 241.96 64.656V46.256H237.928C237.224 46.256 236.744 46.3947 236.488 46.672C236.232 46.9493 236.104 47.44 236.104 48.144V64.656C236.104 65.36 236.232 65.8507 236.488 66.128C236.744 66.4053 237.224 66.544 237.928 66.544ZM260.039 46.8C259.569 46.8 259.303 46.5547 259.239 46.064L258.279 32.176C258.215 31.6213 258.481 31.344 259.079 31.344H266.439C267.036 31.344 267.303 31.6213 267.239 32.176L266.279 46.064C266.215 46.5547 265.948 46.8 265.479 46.8H260.039ZM274.421 74C273.888 74 273.621 73.7333 273.621 73.2V32.144C273.621 31.6107 273.888 31.344 274.421 31.344H283.477C284.011 31.344 284.277 31.6107 284.277 32.144V47.344H292.181V32.144C292.181 31.6107 292.448 31.344 292.981 31.344H302.037C302.571 31.344 302.837 31.6107 302.837 32.144V73.2C302.837 73.7333 302.571 74 302.037 74H292.981C292.448 74 292.181 73.7333 292.181 73.2V55.856H284.277V73.2C284.277 73.7333 284.011 74 283.477 74H274.421ZM318.72 74C318.208 74 317.782 73.8187 317.44 73.456L311.04 67.056C310.678 66.7147 310.496 66.288 310.496 65.776V39.6C310.496 39.0667 310.763 38.8 311.296 38.8H319.84C320.374 38.8 320.64 39.0667 320.64 39.6V64.496C320.64 65.4987 321.131 66 322.112 66H326.496V39.6C326.496 39.0667 326.763 38.8 327.296 38.8H335.84C336.374 38.8 336.64 39.0667 336.64 39.6V73.2C336.64 73.7333 336.374 74 335.84 74H318.72ZM344.921 74C344.388 74 344.121 73.7333 344.121 73.2V39.6C344.121 39.0667 344.388 38.8 344.921 38.8H349.785C350.191 38.8 350.543 38.9813 350.841 39.344L353.977 42.96L357.465 39.184C357.7 38.928 357.999 38.8 358.361 38.8H361.817C362.351 38.8 362.617 39.0667 362.617 39.6V46.48C362.617 46.8213 362.596 47.056 362.553 47.184C362.511 47.2907 362.393 47.408 362.201 47.536L354.265 53.392V73.2C354.265 73.7333 353.999 74 353.465 74H344.921ZM366.85 74C366.316 74 366.05 73.7333 366.05 73.2V32.144C366.05 31.6107 366.316 31.344 366.85 31.344H375.394C375.927 31.344 376.194 31.6107 376.194 32.144V73.2C376.194 73.7333 375.927 74 375.394 74H366.85ZM397.582 74C397.369 74 397.134 73.968 396.878 73.904C396.644 73.84 396.42 73.7867 396.206 73.744L390.51 72.336L383.982 70.16C383.342 69.9467 383.022 69.328 383.022 68.304V47.024C383.022 46.512 383.204 46.0853 383.566 45.744L389.966 39.344C390.329 38.9813 390.756 38.8 391.246 38.8H401.486C401.977 38.8 402.404 38.9813 402.766 39.344L409.166 45.744C409.529 46.0853 409.71 46.512 409.71 47.024V60.144H392.526L392.302 64.4L396.846 65.904L405.006 66.48C405.369 66.544 405.55 66.7893 405.55 67.216V73.2C405.55 73.7333 405.284 74 404.75 74H397.582ZM396.302 55.12H396.91C397.956 55.12 398.788 54.7253 399.406 53.936C400.046 53.1467 400.366 52.08 400.366 50.736V50.096C400.366 48.7733 400.046 47.7173 399.406 46.928C398.788 46.1387 397.956 45.744 396.91 45.744H396.27C395.246 45.744 394.425 46.1387 393.806 46.928C393.209 47.7173 392.91 48.7733 392.91 50.096V50.736C392.91 52.08 393.209 53.1467 393.806 53.936C394.425 54.7253 395.257 55.12 396.302 55.12Z"/>
</mask>
<path d="M76.1088 74C75.5754 74 75.3088 73.7333 75.3088 73.2V32.144C75.3088 31.6107 75.5754 31.344 76.1088 31.344H93.8048C94.3168 31.344 94.7434 31.5147 95.0848 31.856L101.485 38.256C101.847 38.6187 102.029 39.0453 102.029 39.536V50.576C102.029 51.088 101.847 51.5147 101.485 51.856L95.0848 58.256C94.7434 58.6187 94.3168 58.8 93.8048 58.8H85.9648V73.2C85.9648 73.7333 85.6981 74 85.1648 74H76.1088ZM88.3647 50.096C90.1354 50.096 91.3408 49.744 91.9808 49.04C92.6421 48.336 92.9728 47.0027 92.9728 45.04C92.9728 43.0773 92.6421 41.744 91.9808 41.04C91.3408 40.336 90.1354 39.984 88.3647 39.984C86.6154 39.984 85.4101 40.336 84.7488 41.04C84.1088 41.744 83.7888 43.0773 83.7888 45.04C83.7888 47.0027 84.1088 48.336 84.7488 49.04C85.4101 49.744 86.6154 50.096 88.3647 50.096ZM115.184 74C114.693 74 114.266 73.8187 113.904 73.456L107.504 67.056C107.141 66.7147 106.96 66.288 106.96 65.776V47.024C106.96 46.512 107.141 46.0853 107.504 45.744L113.904 39.344C114.266 38.9813 114.693 38.8 115.184 38.8H124.88C125.392 38.8 125.818 38.9813 126.16 39.344L132.56 45.744C132.922 46.0853 133.104 46.512 133.104 47.024V65.776C133.104 66.288 132.922 66.7147 132.56 67.056L126.16 73.456C125.818 73.8187 125.392 74 124.88 74H115.184ZM118.928 66.544H121.168C121.85 66.544 122.32 66.4053 122.576 66.128C122.832 65.8507 122.96 65.36 122.96 64.656V48.144C122.96 47.44 122.832 46.9493 122.576 46.672C122.32 46.3947 121.85 46.256 121.168 46.256H118.928C118.224 46.256 117.744 46.3947 117.488 46.672C117.232 46.9493 117.104 47.44 117.104 48.144V64.656C117.104 65.36 117.232 65.8507 117.488 66.128C117.744 66.4053 118.224 66.544 118.928 66.544ZM141.359 74C140.825 74 140.559 73.7333 140.559 73.2V39.6C140.559 39.0667 140.825 38.8 141.359 38.8H146.223C146.628 38.8 146.98 38.9813 147.279 39.344L150.415 42.96L153.903 39.184C154.137 38.928 154.436 38.8 154.799 38.8H158.255C158.788 38.8 159.055 39.0667 159.055 39.6V46.48C159.055 46.8213 159.033 47.056 158.991 47.184C158.948 47.2907 158.831 47.408 158.639 47.536L150.703 53.392V73.2C150.703 73.7333 150.436 74 149.903 74H141.359ZM170.231 74C169.741 74 169.314 73.8187 168.951 73.456L163.607 68.144C163.266 67.7813 163.095 67.3547 163.095 66.864V46.256H161.751C161.218 46.256 160.951 45.9893 160.951 45.456V39.6C160.951 39.0667 161.218 38.8 161.751 38.8H163.095V34.8C163.095 34.2667 163.362 34 163.895 34H172.407C172.941 34 173.207 34.2667 173.207 34.8V38.8H176.311C176.845 38.8 177.111 39.0667 177.111 39.6V45.456C177.111 45.9893 176.845 46.256 176.311 46.256H173.207V63.344C173.207 63.7493 173.335 64.08 173.591 64.336L176.727 67.504C176.941 67.696 177.047 68.016 177.047 68.464V73.2C177.047 73.7333 176.781 74 176.247 74H170.231ZM197.207 74C196.994 74 196.759 73.968 196.503 73.904C196.269 73.84 196.045 73.7867 195.831 73.744L190.135 72.336L183.607 70.16C182.967 69.9467 182.647 69.328 182.647 68.304V47.024C182.647 46.512 182.829 46.0853 183.191 45.744L189.591 39.344C189.954 38.9813 190.381 38.8 190.871 38.8H201.111C201.602 38.8 202.029 38.9813 202.391 39.344L208.791 45.744C209.154 46.0853 209.335 46.512 209.335 47.024V60.144H192.151L191.927 64.4L196.471 65.904L204.631 66.48C204.994 66.544 205.175 66.7893 205.175 67.216V73.2C205.175 73.7333 204.909 74 204.375 74H197.207ZM195.927 55.12H196.535C197.581 55.12 198.413 54.7253 199.031 53.936C199.671 53.1467 199.991 52.08 199.991 50.736V50.096C199.991 48.7733 199.671 47.7173 199.031 46.928C198.413 46.1387 197.581 45.744 196.535 45.744H195.895C194.871 45.744 194.05 46.1387 193.431 46.928C192.834 47.7173 192.535 48.7733 192.535 50.096V50.736C192.535 52.08 192.834 53.1467 193.431 53.936C194.05 54.7253 194.882 55.12 195.927 55.12ZM234.184 74C233.693 74 233.266 73.8187 232.904 73.456L226.504 67.056C226.141 66.7147 225.96 66.288 225.96 65.776V47.024C225.96 46.512 226.141 46.0853 226.504 45.744L232.904 39.344C233.266 38.9813 233.693 38.8 234.184 38.8H239.08C239.592 38.8 240.018 38.9813 240.36 39.344L241.96 40.944V32.144C241.96 31.6107 242.226 31.344 242.76 31.344H251.304C251.837 31.344 252.104 31.6107 252.104 32.144V73.2C252.104 73.7333 251.837 74 251.304 74H244.648C244.37 74 244.157 73.9467 244.008 73.84C243.88 73.7333 243.73 73.6053 243.56 73.456L241.96 71.856L240.36 73.456C240.018 73.8187 239.592 74 239.08 74H234.184ZM237.928 66.544H240.168C240.85 66.544 241.32 66.4053 241.576 66.128C241.832 65.8507 241.96 65.36 241.96 64.656V46.256H237.928C237.224 46.256 236.744 46.3947 236.488 46.672C236.232 46.9493 236.104 47.44 236.104 48.144V64.656C236.104 65.36 236.232 65.8507 236.488 66.128C236.744 66.4053 237.224 66.544 237.928 66.544ZM260.039 46.8C259.569 46.8 259.303 46.5547 259.239 46.064L258.279 32.176C258.215 31.6213 258.481 31.344 259.079 31.344H266.439C267.036 31.344 267.303 31.6213 267.239 32.176L266.279 46.064C266.215 46.5547 265.948 46.8 265.479 46.8H260.039ZM274.421 74C273.888 74 273.621 73.7333 273.621 73.2V32.144C273.621 31.6107 273.888 31.344 274.421 31.344H283.477C284.011 31.344 284.277 31.6107 284.277 32.144V47.344H292.181V32.144C292.181 31.6107 292.448 31.344 292.981 31.344H302.037C302.571 31.344 302.837 31.6107 302.837 32.144V73.2C302.837 73.7333 302.571 74 302.037 74H292.981C292.448 74 292.181 73.7333 292.181 73.2V55.856H284.277V73.2C284.277 73.7333 284.011 74 283.477 74H274.421ZM318.72 74C318.208 74 317.782 73.8187 317.44 73.456L311.04 67.056C310.678 66.7147 310.496 66.288 310.496 65.776V39.6C310.496 39.0667 310.763 38.8 311.296 38.8H319.84C320.374 38.8 320.64 39.0667 320.64 39.6V64.496C320.64 65.4987 321.131 66 322.112 66H326.496V39.6C326.496 39.0667 326.763 38.8 327.296 38.8H335.84C336.374 38.8 336.64 39.0667 336.64 39.6V73.2C336.64 73.7333 336.374 74 335.84 74H318.72ZM344.921 74C344.388 74 344.121 73.7333 344.121 73.2V39.6C344.121 39.0667 344.388 38.8 344.921 38.8H349.785C350.191 38.8 350.543 38.9813 350.841 39.344L353.977 42.96L357.465 39.184C357.7 38.928 357.999 38.8 358.361 38.8H361.817C362.351 38.8 362.617 39.0667 362.617 39.6V46.48C362.617 46.8213 362.596 47.056 362.553 47.184C362.511 47.2907 362.393 47.408 362.201 47.536L354.265 53.392V73.2C354.265 73.7333 353.999 74 353.465 74H344.921ZM366.85 74C366.316 74 366.05 73.7333 366.05 73.2V32.144C366.05 31.6107 366.316 31.344 366.85 31.344H375.394C375.927 31.344 376.194 31.6107 376.194 32.144V73.2C376.194 73.7333 375.927 74 375.394 74H366.85ZM397.582 74C397.369 74 397.134 73.968 396.878 73.904C396.644 73.84 396.42 73.7867 396.206 73.744L390.51 72.336L383.982 70.16C383.342 69.9467 383.022 69.328 383.022 68.304V47.024C383.022 46.512 383.204 46.0853 383.566 45.744L389.966 39.344C390.329 38.9813 390.756 38.8 391.246 38.8H401.486C401.977 38.8 402.404 38.9813 402.766 39.344L409.166 45.744C409.529 46.0853 409.71 46.512 409.71 47.024V60.144H392.526L392.302 64.4L396.846 65.904L405.006 66.48C405.369 66.544 405.55 66.7893 405.55 67.216V73.2C405.55 73.7333 405.284 74 404.75 74H397.582ZM396.302 55.12H396.91C397.956 55.12 398.788 54.7253 399.406 53.936C400.046 53.1467 400.366 52.08 400.366 50.736V50.096C400.366 48.7733 400.046 47.7173 399.406 46.928C398.788 46.1387 397.956 45.744 396.91 45.744H396.27C395.246 45.744 394.425 46.1387 393.806 46.928C393.209 47.7173 392.91 48.7733 392.91 50.096V50.736C392.91 52.08 393.209 53.1467 393.806 53.936C394.425 54.7253 395.257 55.12 396.302 55.12Z" fill="white"/>
<path d="M95.0848 31.856L92.9634 33.9773L92.9634 33.9773L95.0848 31.856ZM101.485 38.256L103.606 36.1347L103.606 36.1347L101.485 38.256ZM101.485 51.856L99.4287 49.6714L99.3956 49.7025L99.3634 49.7347L101.485 51.856ZM95.0848 58.256L92.9634 56.1347L92.9313 56.1668L92.9002 56.1999L95.0848 58.256ZM85.9648 58.8V55.8H82.9648V58.8H85.9648ZM91.9808 49.04L89.7942 46.986L89.7774 47.0038L89.7609 47.022L91.9808 49.04ZM91.9808 41.04L89.7609 43.058L89.7774 43.0762L89.7942 43.094L91.9808 41.04ZM84.7488 41.04L82.5622 38.986L82.5454 39.0038L82.5289 39.022L84.7488 41.04ZM84.7488 49.04L82.5289 51.058L82.5454 51.0762L82.5622 51.094L84.7488 49.04ZM76.1088 74V71C76.3045 71 77.0024 71.051 77.6301 71.6787C78.2578 72.3064 78.3088 73.0042 78.3088 73.2H75.3088H72.3088C72.3088 73.9291 72.4931 75.0269 73.3874 75.9213C74.2818 76.8157 75.3796 77 76.1088 77V74ZM75.3088 73.2H78.3088V32.144H75.3088H72.3088V73.2H75.3088ZM75.3088 32.144H78.3088C78.3088 32.3398 78.2578 33.0376 77.6301 33.6653C77.0024 34.293 76.3045 34.344 76.1088 34.344V31.344V28.344C75.3797 28.344 74.2818 28.5283 73.3874 29.4227C72.4931 30.317 72.3088 31.4149 72.3088 32.144H75.3088ZM76.1088 31.344V34.344H93.8048V31.344V28.344H76.1088V31.344ZM93.8048 31.344V34.344C93.7226 34.344 93.5739 34.3291 93.3946 34.2574C93.2118 34.1843 93.0653 34.0792 92.9634 33.9773L95.0848 31.856L97.2061 29.7347C96.2654 28.794 95.0588 28.344 93.8048 28.344V31.344ZM95.0848 31.856L92.9634 33.9773L99.3634 40.3773L101.485 38.256L103.606 36.1347L97.2061 29.7347L95.0848 31.856ZM101.485 38.256L99.3634 40.3773C99.3017 40.3156 99.2068 40.198 99.1318 40.0214C99.0556 39.8423 99.0288 39.67 99.0288 39.536H102.029H105.029C105.029 38.2104 104.503 37.0316 103.606 36.1347L101.485 38.256ZM102.029 39.536H99.0288V50.576H102.029H105.029V39.536H102.029ZM102.029 50.576H99.0288C99.0288 50.471 99.049 50.3014 99.1318 50.1066C99.2153 49.9099 99.3303 49.7639 99.4287 49.6714L101.485 51.856L103.541 54.0406C104.525 53.1146 105.029 51.889 105.029 50.576H102.029ZM101.485 51.856L99.3634 49.7347L92.9634 56.1347L95.0848 58.256L97.2061 60.3773L103.606 53.9773L101.485 51.856ZM95.0848 58.256L92.9002 56.1999C92.9927 56.1016 93.1387 55.9866 93.3353 55.903C93.5301 55.8202 93.6998 55.8 93.8048 55.8V58.8V61.8C95.1177 61.8 96.3434 61.296 97.2694 60.3121L95.0848 58.256ZM93.8048 58.8V55.8H85.9648V58.8V61.8H93.8048V58.8ZM85.9648 58.8H82.9648V73.2H85.9648H88.9648V58.8H85.9648ZM85.9648 73.2H82.9648C82.9648 73.0042 83.0157 72.3064 83.6434 71.6787C84.2711 71.051 84.969 71 85.1648 71V74V77C85.8939 77 86.9917 76.8157 87.8861 75.9213C88.7804 75.0269 88.9648 73.9291 88.9648 73.2H85.9648ZM85.1648 74V71H76.1088V74V77H85.1648V74ZM88.3647 50.096V53.096C90.3169 53.096 92.6619 52.7506 94.2006 51.058L91.9808 49.04L89.7609 47.022C89.9134 46.8543 89.9936 46.8828 89.7558 46.9523C89.5127 47.0233 89.0722 47.096 88.3647 47.096V50.096ZM91.9808 49.04L94.1673 51.094C95.678 49.4858 95.9728 47.0938 95.9728 45.04H92.9728H89.9728C89.9728 45.8725 89.9006 46.4363 89.813 46.7899C89.7221 47.1562 89.6555 47.1336 89.7942 46.986L91.9808 49.04ZM92.9728 45.04H95.9728C95.9728 42.9862 95.678 40.5942 94.1673 38.986L91.9808 41.04L89.7942 43.094C89.6555 42.9464 89.7221 42.9238 89.813 43.2901C89.9006 43.6437 89.9728 44.2075 89.9728 45.04H92.9728ZM91.9808 41.04L94.2006 39.022C92.6619 37.3294 90.3169 36.984 88.3647 36.984V39.984V42.984C89.0722 42.984 89.5127 43.0567 89.7558 43.1277C89.9936 43.1972 89.9134 43.2257 89.7609 43.058L91.9808 41.04ZM88.3647 39.984V36.984C86.4047 36.984 84.1071 37.3414 82.5622 38.986L84.7488 41.04L86.9353 43.094C86.8049 43.2329 86.7505 43.1976 86.9897 43.1277C87.2356 43.0559 87.672 42.984 88.3647 42.984V39.984ZM84.7488 41.04L82.5289 39.022C81.0696 40.6273 80.7888 42.9998 80.7888 45.04H83.7888H86.7888C86.7888 44.2025 86.8589 43.6306 86.9459 43.2681C87.0367 42.8897 87.1053 42.9077 86.9686 43.058L84.7488 41.04ZM83.7888 45.04H80.7888C80.7888 47.0802 81.0696 49.4527 82.5289 51.058L84.7488 49.04L86.9686 47.022C87.1053 47.1723 87.0367 47.1903 86.9459 46.8119C86.8589 46.4494 86.7888 45.8775 86.7888 45.04H83.7888ZM84.7488 49.04L82.5622 51.094C84.1071 52.7386 86.4047 53.096 88.3647 53.096V50.096V47.096C87.672 47.096 87.2356 47.0241 86.9897 46.9523C86.7505 46.8824 86.8049 46.8471 86.9353 46.986L84.7488 49.04ZM113.904 73.456L116.025 71.3347L116.025 71.3347L113.904 73.456ZM107.504 67.056L109.625 64.9347L109.593 64.9025L109.56 64.8714L107.504 67.056ZM107.504 45.744L109.56 47.9286L109.593 47.8975L109.625 47.8653L107.504 45.744ZM113.904 39.344L111.782 37.2227L111.782 37.2227L113.904 39.344ZM126.16 39.344L123.975 41.4001L124.006 41.4332L124.038 41.4653L126.16 39.344ZM132.56 45.744L130.438 47.8653L130.471 47.8975L130.504 47.9286L132.56 45.744ZM132.56 67.056L130.504 64.8714L130.471 64.9025L130.438 64.9347L132.56 67.056ZM126.16 73.456L124.038 71.3347L124.006 71.3668L123.975 71.3999L126.16 73.456ZM122.576 66.128L120.371 64.0932L120.371 64.0932L122.576 66.128ZM122.576 46.672L120.371 48.7068L120.371 48.7068L122.576 46.672ZM117.488 46.672L119.692 48.7068L119.692 48.7068L117.488 46.672ZM117.488 66.128L119.692 64.0932L119.692 64.0932L117.488 66.128ZM115.184 74V71C115.318 71 115.49 71.0269 115.669 71.103C115.846 71.178 115.963 71.2729 116.025 71.3347L113.904 73.456L111.782 75.5773C112.679 76.4742 113.858 77 115.184 77V74ZM113.904 73.456L116.025 71.3347L109.625 64.9347L107.504 67.056L105.382 69.1773L111.782 75.5773L113.904 73.456ZM107.504 67.056L109.56 64.8714C109.658 64.9639 109.773 65.1099 109.857 65.3066C109.94 65.5014 109.96 65.671 109.96 65.776H106.96H103.96C103.96 67.089 104.464 68.3146 105.448 69.2406L107.504 67.056ZM106.96 65.776H109.96V47.024H106.96H103.96V65.776H106.96ZM106.96 47.024H109.96C109.96 47.129 109.94 47.2986 109.857 47.4934C109.773 47.6901 109.658 47.8361 109.56 47.9286L107.504 45.744L105.448 43.5594C104.464 44.4854 103.96 45.711 103.96 47.024H106.96ZM107.504 45.744L109.625 47.8653L116.025 41.4653L113.904 39.344L111.782 37.2227L105.382 43.6227L107.504 45.744ZM113.904 39.344L116.025 41.4653C115.963 41.5271 115.846 41.622 115.669 41.697C115.49 41.7731 115.318 41.8 115.184 41.8V38.8V35.8C113.858 35.8 112.679 36.3258 111.782 37.2227L113.904 39.344ZM115.184 38.8V41.8H124.88V38.8V35.8H115.184V38.8ZM124.88 38.8V41.8C124.775 41.8 124.605 41.7798 124.41 41.697C124.214 41.6134 124.068 41.4984 123.975 41.4001L126.16 39.344L128.344 37.2879C127.418 36.304 126.193 35.8 124.88 35.8V38.8ZM126.16 39.344L124.038 41.4653L130.438 47.8653L132.56 45.744L134.681 43.6227L128.281 37.2227L126.16 39.344ZM132.56 45.744L130.504 47.9286C130.405 47.8361 130.29 47.6901 130.207 47.4934C130.124 47.2986 130.104 47.129 130.104 47.024H133.104H136.104C136.104 45.711 135.6 44.4854 134.616 43.5594L132.56 45.744ZM133.104 47.024H130.104V65.776H133.104H136.104V47.024H133.104ZM133.104 65.776H130.104C130.104 65.671 130.124 65.5014 130.207 65.3066C130.29 65.1099 130.405 64.9639 130.504 64.8714L132.56 67.056L134.616 69.2406C135.6 68.3146 136.104 67.089 136.104 65.776H133.104ZM132.56 67.056L130.438 64.9347L124.038 71.3347L126.16 73.456L128.281 75.5773L134.681 69.1773L132.56 67.056ZM126.16 73.456L123.975 71.3999C124.068 71.3016 124.214 71.1866 124.41 71.103C124.605 71.0202 124.775 71 124.88 71V74V77C126.193 77 127.418 76.4959 128.344 75.5121L126.16 73.456ZM124.88 74V71H115.184V74V77H124.88V74ZM118.928 66.544V69.544H121.168V66.544V63.544H118.928V66.544ZM121.168 66.544V69.544C122.063 69.544 123.639 69.3992 124.78 68.1628L122.576 66.128L120.371 64.0932C120.704 63.7325 121.048 63.6025 121.182 63.5629C121.308 63.5257 121.326 63.544 121.168 63.544V66.544ZM122.576 66.128L124.78 68.1628C125.838 67.017 125.96 65.5348 125.96 64.656H122.96H119.96C119.96 64.8434 119.941 64.8714 119.961 64.7947C119.98 64.7202 120.07 64.4194 120.371 64.0932L122.576 66.128ZM122.96 64.656H125.96V48.144H122.96H119.96V64.656H122.96ZM122.96 48.144H125.96C125.96 47.2652 125.838 45.783 124.78 44.6372L122.576 46.672L120.371 48.7068C120.07 48.3806 119.98 48.0798 119.961 48.0053C119.941 47.9286 119.96 47.9566 119.96 48.144H122.96ZM122.576 46.672L124.78 44.6372C123.639 43.4008 122.063 43.256 121.168 43.256V46.256V49.256C121.326 49.256 121.308 49.2743 121.182 49.2371C121.048 49.1975 120.704 49.0675 120.371 48.7068L122.576 46.672ZM121.168 46.256V43.256H118.928V46.256V49.256H121.168V46.256ZM118.928 46.256V43.256C118.045 43.256 116.437 43.3872 115.283 44.6372L117.488 46.672L119.692 48.7068C119.347 49.0808 118.993 49.2074 118.872 49.2421C118.756 49.2756 118.752 49.256 118.928 49.256V46.256ZM117.488 46.672L115.283 44.6372C114.226 45.783 114.104 47.2652 114.104 48.144H117.104H120.104C120.104 47.9566 120.123 47.9286 120.103 48.0053C120.083 48.0798 119.993 48.3806 119.692 48.7068L117.488 46.672ZM117.104 48.144H114.104V64.656H117.104H120.104V48.144H117.104ZM117.104 64.656H114.104C114.104 65.5348 114.226 67.017 115.283 68.1628L117.488 66.128L119.692 64.0932C119.993 64.4194 120.083 64.7202 120.103 64.7947C120.123 64.8714 120.104 64.8434 120.104 64.656H117.104ZM117.488 66.128L115.283 68.1628C116.437 69.4128 118.045 69.544 118.928 69.544V66.544V63.544C118.752 63.544 118.756 63.5244 118.872 63.5579C118.993 63.5926 119.347 63.7192 119.692 64.0932L117.488 66.128ZM147.279 39.344L144.963 41.2511L144.987 41.2807L145.012 41.3096L147.279 39.344ZM150.415 42.96L148.148 44.9256L150.344 47.4576L152.618 44.9956L150.415 42.96ZM153.903 39.184L156.106 41.2196L156.114 41.2112L153.903 39.184ZM158.991 47.184L161.776 48.2982L161.809 48.2163L161.837 48.1327L158.991 47.184ZM158.639 47.536L156.975 45.0399L156.915 45.0796L156.857 45.1221L158.639 47.536ZM150.703 53.392L148.921 50.9781L147.703 51.8774V53.392H150.703ZM141.359 74V71C141.555 71 142.252 71.051 142.88 71.6787C143.508 72.3064 143.559 73.0042 143.559 73.2H140.559H137.559C137.559 73.9291 137.743 75.0269 138.637 75.9213C139.532 76.8157 140.63 77 141.359 77V74ZM140.559 73.2H143.559V39.6H140.559H137.559V73.2H140.559ZM140.559 39.6H143.559C143.559 39.7958 143.508 40.4936 142.88 41.1213C142.252 41.749 141.555 41.8 141.359 41.8V38.8V35.8C140.63 35.8 139.532 35.9843 138.637 36.8787C137.743 37.773 137.559 38.8709 137.559 39.6H140.559ZM141.359 38.8V41.8H146.223V38.8V35.8H141.359V38.8ZM146.223 38.8V41.8C145.959 41.8 145.676 41.7365 145.417 41.6029C145.17 41.4755 145.025 41.3267 144.963 41.2511L147.279 39.344L149.595 37.4369C148.827 36.5052 147.673 35.8 146.223 35.8V38.8ZM147.279 39.344L145.012 41.3096L148.148 44.9256L150.415 42.96L152.681 40.9944L149.545 37.3784L147.279 39.344ZM150.415 42.96L152.618 44.9956L156.106 41.2196L153.903 39.184L151.699 37.1484L148.211 40.9244L150.415 42.96ZM153.903 39.184L156.114 41.2112C155.964 41.3749 155.753 41.5385 155.485 41.6534C155.219 41.7671 154.976 41.8 154.799 41.8V38.8V35.8C153.637 35.8 152.522 36.2506 151.691 37.1568L153.903 39.184ZM154.799 38.8V41.8H158.255V38.8V35.8H154.799V38.8ZM158.255 38.8V41.8C158.059 41.8 157.361 41.749 156.733 41.1213C156.106 40.4936 156.055 39.7958 156.055 39.6H159.055H162.055C162.055 38.8709 161.87 37.7731 160.976 36.8787C160.082 35.9843 158.984 35.8 158.255 35.8V38.8ZM159.055 39.6H156.055V46.48H159.055H162.055V39.6H159.055ZM159.055 46.48H156.055C156.055 46.5963 156.051 46.6435 156.051 46.6404C156.051 46.6372 156.054 46.6031 156.064 46.5466C156.073 46.4954 156.096 46.3828 156.145 46.2353L158.991 47.184L161.837 48.1327C162.052 47.4874 162.055 46.7979 162.055 46.48H159.055ZM158.991 47.184L156.205 46.0698C156.386 45.6174 156.638 45.3418 156.749 45.2307C156.873 45.1074 156.965 45.0464 156.975 45.0399L158.639 47.536L160.303 50.0321C160.579 49.8483 161.374 49.3037 161.776 48.2982L158.991 47.184ZM158.639 47.536L156.857 45.1221L148.921 50.9781L150.703 53.392L152.484 55.8059L160.42 49.9499L158.639 47.536ZM150.703 53.392H147.703V73.2H150.703H153.703V53.392H150.703ZM150.703 73.2H147.703C147.703 73.0042 147.754 72.3064 148.381 71.6787C149.009 71.051 149.707 71 149.903 71V74V77C150.632 77 151.73 76.8157 152.624 75.9213C153.518 75.0269 153.703 73.9291 153.703 73.2H150.703ZM149.903 74V71H141.359V74V77H149.903V74ZM168.951 73.456L171.073 71.3347L171.066 71.3283L168.951 73.456ZM163.607 68.144L161.423 70.2001L161.457 70.2365L161.492 70.2717L163.607 68.144ZM163.095 46.256H166.095V43.256H163.095V46.256ZM163.095 38.8V41.8H166.095V38.8H163.095ZM173.207 38.8H170.207V41.8H173.207V38.8ZM173.207 46.256V43.256H170.207V46.256H173.207ZM173.591 64.336L175.723 62.2255L175.718 62.2201L175.713 62.2147L173.591 64.336ZM176.727 67.504L174.595 69.6145L174.656 69.676L174.72 69.7339L176.727 67.504ZM170.231 74V71C170.365 71 170.538 71.0269 170.717 71.103C170.893 71.178 171.011 71.2729 171.073 71.3347L168.951 73.456L166.83 75.5773C167.727 76.4742 168.906 77 170.231 77V74ZM168.951 73.456L171.066 71.3283L165.722 66.0163L163.607 68.144L161.492 70.2717L166.836 75.5837L168.951 73.456ZM163.607 68.144L165.792 66.0879C165.857 66.1571 165.943 66.2741 166.009 66.4378C166.074 66.6023 166.095 66.7538 166.095 66.864H163.095H160.095C160.095 68.1315 160.566 69.2902 161.423 70.2001L163.607 68.144ZM163.095 66.864H166.095V46.256H163.095H160.095V66.864H163.095ZM163.095 46.256V43.256H161.751V46.256V49.256H163.095V46.256ZM161.751 46.256V43.256C161.947 43.256 162.645 43.307 163.273 43.9347C163.9 44.5624 163.951 45.2602 163.951 45.456H160.951H157.951C157.951 46.1851 158.136 47.2829 159.03 48.1773C159.924 49.0717 161.022 49.256 161.751 49.256V46.256ZM160.951 45.456H163.951V39.6H160.951H157.951V45.456H160.951ZM160.951 39.6H163.951C163.951 39.7958 163.9 40.4936 163.273 41.1213C162.645 41.749 161.947 41.8 161.751 41.8V38.8V35.8C161.022 35.8 159.924 35.9843 159.03 36.8787C158.136 37.7731 157.951 38.8709 157.951 39.6H160.951ZM161.751 38.8V41.8H163.095V38.8V35.8H161.751V38.8ZM163.095 38.8H166.095V34.8H163.095H160.095V38.8H163.095ZM163.095 34.8H166.095C166.095 34.9958 166.044 35.6936 165.417 36.3213C164.789 36.949 164.091 37 163.895 37V34V31C163.166 31 162.068 31.1843 161.174 32.0787C160.28 32.9731 160.095 34.0709 160.095 34.8H163.095ZM163.895 34V37H172.407V34V31H163.895V34ZM172.407 34V37C172.211 37 171.514 36.949 170.886 36.3213C170.258 35.6936 170.207 34.9958 170.207 34.8H173.207H176.207C176.207 34.0709 176.023 32.9731 175.129 32.0787C174.234 31.1843 173.136 31 172.407 31V34ZM173.207 34.8H170.207V38.8H173.207H176.207V34.8H173.207ZM173.207 38.8V41.8H176.311V38.8V35.8H173.207V38.8ZM176.311 38.8V41.8C176.115 41.8 175.418 41.749 174.79 41.1213C174.162 40.4936 174.111 39.7958 174.111 39.6H177.111H180.111C180.111 38.8709 179.927 37.7731 179.033 36.8787C178.138 35.9843 177.04 35.8 176.311 35.8V38.8ZM177.111 39.6H174.111V45.456H177.111H180.111V39.6H177.111ZM177.111 45.456H174.111C174.111 45.2602 174.162 44.5624 174.79 43.9347C175.418 43.307 176.115 43.256 176.311 43.256V46.256V49.256C177.04 49.256 178.138 49.0717 179.033 48.1773C179.927 47.2829 180.111 46.1851 180.111 45.456H177.111ZM176.311 46.256V43.256H173.207V46.256V49.256H176.311V46.256ZM173.207 46.256H170.207V63.344H173.207H176.207V46.256H173.207ZM173.207 63.344H170.207C170.207 64.441 170.582 65.5692 171.47 66.4573L173.591 64.336L175.713 62.2147C175.873 62.3756 176.011 62.5806 176.101 62.813C176.188 63.0389 176.207 63.2287 176.207 63.344H173.207ZM173.591 64.336L171.459 66.4465L174.595 69.6145L176.727 67.504L178.859 65.3935L175.723 62.2255L173.591 64.336ZM176.727 67.504L174.72 69.7339C174.378 69.4261 174.203 69.0823 174.121 68.8367C174.082 68.7187 174.064 68.6245 174.056 68.5647C174.047 68.5049 174.047 68.4693 174.047 68.464H177.047H180.047C180.047 67.6371 179.861 66.2884 178.734 65.2741L176.727 67.504ZM177.047 68.464H174.047V73.2H177.047H180.047V68.464H177.047ZM177.047 73.2H174.047C174.047 73.0042 174.098 72.3064 174.726 71.6787C175.354 71.051 176.051 71 176.247 71V74V77C176.976 77 178.074 76.8157 178.969 75.9213C179.863 75.0269 180.047 73.9291 180.047 73.2H177.047ZM176.247 74V71H170.231V74V77H176.247V74ZM196.503 73.904L195.714 76.7983L195.745 76.8067L195.776 76.8144L196.503 73.904ZM195.831 73.744L195.111 76.6563L195.177 76.6725L195.243 76.6857L195.831 73.744ZM190.135 72.336L189.187 75.182L189.3 75.2197L189.415 75.2483L190.135 72.336ZM183.607 70.16L182.659 73.006L182.659 73.006L183.607 70.16ZM183.191 45.744L185.247 47.9286L185.28 47.8975L185.313 47.8653L183.191 45.744ZM189.591 39.344L187.47 37.2227L187.47 37.2227L189.591 39.344ZM202.391 39.344L204.513 37.2227L202.391 39.344ZM208.791 45.744L206.67 47.8653L206.702 47.8975L206.735 47.9286L208.791 45.744ZM209.335 60.144V63.144H212.335V60.144H209.335ZM192.151 60.144V57.144H189.305L189.155 59.9863L192.151 60.144ZM191.927 64.4L188.931 64.2423L188.811 66.5286L190.985 67.248L191.927 64.4ZM196.471 65.904L195.529 68.752L195.885 68.8701L196.26 68.8966L196.471 65.904ZM204.631 66.48L205.153 63.5256L204.999 63.4985L204.842 63.4874L204.631 66.48ZM199.031 53.936L196.701 52.0466L196.685 52.0658L196.67 52.0854L199.031 53.936ZM199.031 46.928L196.67 48.7786L196.685 48.7982L196.701 48.8174L199.031 46.928ZM193.431 46.928L191.07 45.0774L191.054 45.0974L191.039 45.1177L193.431 46.928ZM193.431 53.936L191.039 55.7463L191.054 55.7666L191.07 55.7866L193.431 53.936ZM197.207 74V71C197.25 71 197.274 71.0032 197.277 71.0035C197.279 71.0039 197.264 71.002 197.231 70.9936L196.503 73.904L195.776 76.8144C196.216 76.9245 196.699 77 197.207 77V74ZM196.503 73.904L197.293 71.0097C196.999 70.9297 196.708 70.8599 196.42 70.8023L195.831 73.744L195.243 76.6857C195.381 76.7134 195.538 76.7503 195.714 76.7983L196.503 73.904ZM195.831 73.744L196.551 70.8317L190.855 69.4237L190.135 72.336L189.415 75.2483L195.111 76.6563L195.831 73.744ZM190.135 72.336L191.084 69.49L184.556 67.3139L183.607 70.16L182.659 73.006L189.187 75.182L190.135 72.336ZM183.607 70.16L184.556 67.314C184.746 67.3773 184.956 67.4874 185.152 67.6569C185.346 67.8252 185.474 68.0072 185.552 68.1577C185.691 68.4275 185.647 68.5449 185.647 68.304H182.647H179.647C179.647 69.0871 179.763 70.0259 180.223 70.9143C180.729 71.8926 181.571 72.6435 182.659 73.006L183.607 70.16ZM182.647 68.304H185.647V47.024H182.647H179.647V68.304H182.647ZM182.647 47.024H185.647C185.647 47.129 185.627 47.2986 185.544 47.4934C185.461 47.6901 185.346 47.8361 185.247 47.9286L183.191 45.744L181.135 43.5594C180.151 44.4854 179.647 45.711 179.647 47.024H182.647ZM183.191 45.744L185.313 47.8653L191.713 41.4653L189.591 39.344L187.47 37.2227L181.07 43.6227L183.191 45.744ZM189.591 39.344L191.713 41.4653C191.651 41.5271 191.533 41.622 191.357 41.697C191.178 41.7731 191.005 41.8 190.871 41.8V38.8V35.8C189.546 35.8 188.367 36.3258 187.47 37.2227L189.591 39.344ZM190.871 38.8V41.8H201.111V38.8V35.8H190.871V38.8ZM201.111 38.8V41.8C200.977 41.8 200.805 41.7731 200.626 41.697C200.449 41.622 200.332 41.5271 200.27 41.4653L202.391 39.344L204.513 37.2227C203.616 36.3258 202.437 35.8 201.111 35.8V38.8ZM202.391 39.344L200.27 41.4653L206.67 47.8653L208.791 45.744L210.913 43.6227L204.513 37.2227L202.391 39.344ZM208.791 45.744L206.735 47.9286C206.637 47.8361 206.522 47.6901 206.438 47.4934C206.355 47.2986 206.335 47.129 206.335 47.024H209.335H212.335C212.335 45.711 211.831 44.4854 210.847 43.5594L208.791 45.744ZM209.335 47.024H206.335V60.144H209.335H212.335V47.024H209.335ZM209.335 60.144V57.144H192.151V60.144V63.144H209.335V60.144ZM192.151 60.144L189.155 59.9863L188.931 64.2423L191.927 64.4L194.923 64.5577L195.147 60.3017L192.151 60.144ZM191.927 64.4L190.985 67.248L195.529 68.752L196.471 65.904L197.414 63.056L192.87 61.552L191.927 64.4ZM196.471 65.904L196.26 68.8966L204.42 69.4726L204.631 66.48L204.842 63.4874L196.682 62.9114L196.471 65.904ZM204.631 66.48L204.11 69.4344C203.7 69.3621 203.084 69.1144 202.627 68.4952C202.21 67.9319 202.175 67.3953 202.175 67.216H205.175H208.175C208.175 66.6101 208.049 65.7375 207.452 64.9288C206.813 64.0643 205.925 63.6619 205.153 63.5256L204.631 66.48ZM205.175 67.216H202.175V73.2H205.175H208.175V67.216H205.175ZM205.175 73.2H202.175C202.175 73.0042 202.226 72.3064 202.854 71.6787C203.482 71.051 204.179 71 204.375 71V74V77C205.104 77 206.202 76.8157 207.097 75.9213C207.991 75.0269 208.175 73.9291 208.175 73.2H205.175ZM204.375 74V71H197.207V74V77H204.375V74ZM195.927 55.12V58.12H196.535V55.12V52.12H195.927V55.12ZM196.535 55.12V58.12C198.457 58.12 200.178 57.3365 201.392 55.7866L199.031 53.936L196.67 52.0854C196.643 52.1205 196.628 52.1316 196.63 52.1298C196.633 52.1275 196.643 52.1202 196.657 52.1135C196.671 52.1069 196.675 52.1074 196.662 52.1102C196.648 52.1132 196.608 52.12 196.535 52.12V55.12ZM199.031 53.936L201.362 55.8254C202.557 54.3508 202.991 52.5448 202.991 50.736H199.991H196.991C196.991 51.6152 196.785 51.9425 196.701 52.0466L199.031 53.936ZM199.991 50.736H202.991V50.096H199.991H196.991V50.736H199.991ZM199.991 50.096H202.991C202.991 48.2952 202.551 46.5052 201.362 45.0386L199.031 46.928L196.701 48.8174C196.792 48.9294 196.991 49.2515 196.991 50.096H199.991ZM199.031 46.928L201.392 45.0774C200.178 43.5275 198.457 42.744 196.535 42.744V45.744V48.744C196.608 48.744 196.648 48.7508 196.662 48.7538C196.675 48.7566 196.671 48.7571 196.657 48.7505C196.643 48.7438 196.633 48.7365 196.63 48.7342C196.628 48.7324 196.643 48.7435 196.67 48.7786L199.031 46.928ZM196.535 45.744V42.744H195.895V45.744V48.744H196.535V45.744ZM195.895 45.744V42.744C193.972 42.744 192.271 43.5448 191.07 45.0774L193.431 46.928L195.792 48.7786C195.808 48.7591 195.819 48.7461 195.827 48.7383C195.835 48.7305 195.839 48.7273 195.839 48.7273C195.839 48.7272 195.838 48.7278 195.836 48.7289C195.835 48.73 195.833 48.7314 195.83 48.7332C195.825 48.7367 195.818 48.7405 195.811 48.744C195.794 48.7518 195.786 48.7531 195.793 48.7517C195.8 48.75 195.832 48.744 195.895 48.744V45.744ZM193.431 46.928L191.039 45.1177C189.933 46.5788 189.535 48.3381 189.535 50.096H192.535H195.535C195.535 49.2086 195.735 48.8558 195.823 48.7383L193.431 46.928ZM192.535 50.096H189.535V50.736H192.535H195.535V50.096H192.535ZM192.535 50.736H189.535C189.535 52.5026 189.928 54.2777 191.039 55.7463L193.431 53.936L195.823 52.1257C195.74 52.0157 195.535 51.6574 195.535 50.736H192.535ZM193.431 53.936L191.07 55.7866C192.285 57.3365 194.005 58.12 195.927 58.12V55.12V52.12C195.855 52.12 195.815 52.1132 195.8 52.1102C195.787 52.1074 195.791 52.1069 195.805 52.1135C195.819 52.1202 195.829 52.1275 195.832 52.1298C195.834 52.1316 195.82 52.1205 195.792 52.0854L193.431 53.936ZM232.904 73.456L235.025 71.3347L235.025 71.3347L232.904 73.456ZM226.504 67.056L228.625 64.9347L228.593 64.9025L228.56 64.8714L226.504 67.056ZM226.504 45.744L228.56 47.9286L228.593 47.8975L228.625 47.8653L226.504 45.744ZM232.904 39.344L230.782 37.2227L230.782 37.2227L232.904 39.344ZM240.36 39.344L238.175 41.4001L238.206 41.4332L238.238 41.4653L240.36 39.344ZM241.96 40.944L239.838 43.0653L244.96 48.1866V40.944H241.96ZM244.008 73.84L242.087 76.1447L242.173 76.2162L242.264 76.2812L244.008 73.84ZM243.56 73.456L241.438 75.5773L241.509 75.6479L241.584 75.7137L243.56 73.456ZM241.96 71.856L244.081 69.7347L241.96 67.6134L239.838 69.7347L241.96 71.856ZM240.36 73.456L238.238 71.3347L238.206 71.3668L238.175 71.3999L240.36 73.456ZM241.576 66.128L239.371 64.0932L239.371 64.0932L241.576 66.128ZM241.96 46.256H244.96V43.256H241.96V46.256ZM236.488 46.672L238.692 48.7068L238.692 48.7068L236.488 46.672ZM236.488 66.128L238.692 64.0932L238.692 64.0932L236.488 66.128ZM234.184 74V71C234.318 71 234.49 71.0269 234.669 71.103C234.846 71.178 234.963 71.2729 235.025 71.3347L232.904 73.456L230.782 75.5773C231.679 76.4742 232.858 77 234.184 77V74ZM232.904 73.456L235.025 71.3347L228.625 64.9347L226.504 67.056L224.382 69.1773L230.782 75.5773L232.904 73.456ZM226.504 67.056L228.56 64.8714C228.658 64.9639 228.773 65.1099 228.857 65.3066C228.94 65.5014 228.96 65.671 228.96 65.776H225.96H222.96C222.96 67.089 223.464 68.3146 224.448 69.2406L226.504 67.056ZM225.96 65.776H228.96V47.024H225.96H222.96V65.776H225.96ZM225.96 47.024H228.96C228.96 47.129 228.94 47.2986 228.857 47.4934C228.773 47.6901 228.658 47.8361 228.56 47.9286L226.504 45.744L224.448 43.5594C223.464 44.4854 222.96 45.711 222.96 47.024H225.96ZM226.504 45.744L228.625 47.8653L235.025 41.4653L232.904 39.344L230.782 37.2227L224.382 43.6227L226.504 45.744ZM232.904 39.344L235.025 41.4653C234.963 41.5271 234.846 41.622 234.669 41.697C234.49 41.7731 234.318 41.8 234.184 41.8V38.8V35.8C232.858 35.8 231.679 36.3258 230.782 37.2227L232.904 39.344ZM234.184 38.8V41.8H239.08V38.8V35.8H234.184V38.8ZM239.08 38.8V41.8C238.975 41.8 238.805 41.7798 238.61 41.697C238.414 41.6134 238.268 41.4984 238.175 41.4001L240.36 39.344L242.544 37.2879C241.618 36.304 240.393 35.8 239.08 35.8V38.8ZM240.36 39.344L238.238 41.4653L239.838 43.0653L241.96 40.944L244.081 38.8227L242.481 37.2227L240.36 39.344ZM241.96 40.944H244.96V32.144H241.96H238.96V40.944H241.96ZM241.96 32.144H244.96C244.96 32.3398 244.909 33.0376 244.281 33.6653C243.653 34.293 242.956 34.344 242.76 34.344V31.344V28.344C242.031 28.344 240.933 28.5283 240.038 29.4227C239.144 30.317 238.96 31.4149 238.96 32.144H241.96ZM242.76 31.344V34.344H251.304V31.344V28.344H242.76V31.344ZM251.304 31.344V34.344C251.108 34.344 250.41 34.293 249.782 33.6653C249.155 33.0376 249.104 32.3398 249.104 32.144H252.104H255.104C255.104 31.4149 254.919 30.317 254.025 29.4227C253.131 28.5283 252.033 28.344 251.304 28.344V31.344ZM252.104 32.144H249.104V73.2H252.104H255.104V32.144H252.104ZM252.104 73.2H249.104C249.104 73.0042 249.155 72.3064 249.782 71.6787C250.41 71.051 251.108 71 251.304 71V74V77C252.033 77 253.131 76.8157 254.025 75.9213C254.919 75.0269 255.104 73.9291 255.104 73.2H252.104ZM251.304 74V71H244.648V74V77H251.304V74ZM244.648 74V71C244.694 71 245.192 70.9993 245.751 71.3988L244.008 73.84L242.264 76.2812C243.122 76.8941 244.046 77 244.648 77V74ZM244.008 73.84L245.928 71.5353C245.824 71.4484 245.694 71.337 245.535 71.1983L243.56 73.456L241.584 75.7137C241.767 75.8737 241.935 76.0182 242.087 76.1447L244.008 73.84ZM243.56 73.456L245.681 71.3347L244.081 69.7347L241.96 71.856L239.838 73.9773L241.438 75.5773L243.56 73.456ZM241.96 71.856L239.838 69.7347L238.238 71.3347L240.36 73.456L242.481 75.5773L244.081 73.9773L241.96 71.856ZM240.36 73.456L238.175 71.3999C238.268 71.3016 238.414 71.1866 238.61 71.103C238.805 71.0202 238.975 71 239.08 71V74V77C240.393 77 241.618 76.496 242.544 75.5121L240.36 73.456ZM239.08 74V71H234.184V74V77H239.08V74ZM237.928 66.544V69.544H240.168V66.544V63.544H237.928V66.544ZM240.168 66.544V69.544C241.063 69.544 242.639 69.3992 243.78 68.1628L241.576 66.128L239.371 64.0932C239.704 63.7325 240.048 63.6025 240.182 63.5629C240.308 63.5257 240.326 63.544 240.168 63.544V66.544ZM241.576 66.128L243.78 68.1628C244.838 67.017 244.96 65.5348 244.96 64.656H241.96H238.96C238.96 64.8434 238.941 64.8714 238.961 64.7947C238.98 64.7202 239.07 64.4194 239.371 64.0932L241.576 66.128ZM241.96 64.656H244.96V46.256H241.96H238.96V64.656H241.96ZM241.96 46.256V43.256H237.928V46.256V49.256H241.96V46.256ZM237.928 46.256V43.256C237.045 43.256 235.437 43.3872 234.283 44.6372L236.488 46.672L238.692 48.7068C238.347 49.0808 237.993 49.2074 237.872 49.2421C237.756 49.2756 237.752 49.256 237.928 49.256V46.256ZM236.488 46.672L234.283 44.6372C233.226 45.783 233.104 47.2652 233.104 48.144H236.104H239.104C239.104 47.9566 239.123 47.9286 239.103 48.0053C239.083 48.0798 238.993 48.3806 238.692 48.7068L236.488 46.672ZM236.104 48.144H233.104V64.656H236.104H239.104V48.144H236.104ZM236.104 64.656H233.104C233.104 65.5348 233.226 67.017 234.283 68.1628L236.488 66.128L238.692 64.0932C238.993 64.4194 239.083 64.7202 239.103 64.7947C239.123 64.8714 239.104 64.8434 239.104 64.656H236.104ZM236.488 66.128L234.283 68.1628C235.437 69.4128 237.045 69.544 237.928 69.544V66.544V63.544C237.752 63.544 237.756 63.5244 237.872 63.5579C237.993 63.5926 238.347 63.7192 238.692 64.0932L236.488 66.128ZM259.239 46.064L256.246 46.2709L256.252 46.3617L256.264 46.452L259.239 46.064ZM258.279 32.176L261.272 31.9691L261.267 31.9005L261.259 31.8321L258.279 32.176ZM267.239 32.176L264.259 31.8321L264.251 31.9005L264.246 31.9691L267.239 32.176ZM266.279 46.064L269.254 46.452L269.265 46.3617L269.272 46.2709L266.279 46.064ZM260.039 46.8V43.8C260.328 43.8 260.949 43.8851 261.518 44.4082C262.065 44.9117 262.188 45.4777 262.214 45.676L259.239 46.064L256.264 46.452C256.354 47.1409 256.642 48.075 257.456 48.8238C258.291 49.5922 259.281 49.8 260.039 49.8V46.8ZM259.239 46.064L262.232 45.8571L261.272 31.9691L258.279 32.176L255.286 32.3829L256.246 46.2709L259.239 46.064ZM258.279 32.176L261.259 31.8321C261.282 32.0296 261.321 32.8746 260.593 33.6313C259.914 34.3374 259.154 34.344 259.079 34.344V31.344V28.344C258.406 28.344 257.214 28.4892 256.268 29.4727C255.274 30.5067 255.212 31.7677 255.299 32.5199L258.279 32.176ZM259.079 31.344V34.344H266.439V31.344V28.344H259.079V31.344ZM266.439 31.344V34.344C266.363 34.344 265.603 34.3374 264.924 33.6313C264.197 32.8746 264.236 32.0296 264.259 31.8321L267.239 32.176L270.219 32.5199C270.306 31.7677 270.244 30.5067 269.249 29.4727C268.304 28.4892 267.111 28.344 266.439 28.344V31.344ZM267.239 32.176L264.246 31.9691L263.286 45.8571L266.279 46.064L269.272 46.2709L270.232 32.3829L267.239 32.176ZM266.279 46.064L263.304 45.676C263.33 45.4777 263.452 44.9117 264 44.4082C264.568 43.8851 265.19 43.8 265.479 43.8V46.8V49.8C266.237 49.8 267.227 49.5922 268.062 48.8238C268.876 48.075 269.164 47.1409 269.254 46.452L266.279 46.064ZM265.479 46.8V43.8H260.039V46.8V49.8H265.479V46.8ZM284.277 47.344H281.277V50.344H284.277V47.344ZM292.181 47.344V50.344H295.181V47.344H292.181ZM292.181 55.856H295.181V52.856H292.181V55.856ZM284.277 55.856V52.856H281.277V55.856H284.277ZM274.421 74V71C274.617 71 275.315 71.051 275.943 71.6787C276.57 72.3064 276.621 73.0042 276.621 73.2H273.621H270.621C270.621 73.9291 270.806 75.0269 271.7 75.9213C272.594 76.8157 273.692 77 274.421 77V74ZM273.621 73.2H276.621V32.144H273.621H270.621V73.2H273.621ZM273.621 32.144H276.621C276.621 32.3398 276.57 33.0376 275.943 33.6653C275.315 34.293 274.617 34.344 274.421 34.344V31.344V28.344C273.692 28.344 272.594 28.5283 271.7 29.4227C270.806 30.317 270.621 31.4149 270.621 32.144H273.621ZM274.421 31.344V34.344H283.477V31.344V28.344H274.421V31.344ZM283.477 31.344V34.344C283.281 34.344 282.584 34.293 281.956 33.6653C281.328 33.0376 281.277 32.3398 281.277 32.144H284.277H287.277C287.277 31.4149 287.093 30.317 286.199 29.4227C285.304 28.5283 284.206 28.344 283.477 28.344V31.344ZM284.277 32.144H281.277V47.344H284.277H287.277V32.144H284.277ZM284.277 47.344V50.344H292.181V47.344V44.344H284.277V47.344ZM292.181 47.344H295.181V32.144H292.181H289.181V47.344H292.181ZM292.181 32.144H295.181C295.181 32.3398 295.13 33.0376 294.503 33.6653C293.875 34.293 293.177 34.344 292.981 34.344V31.344V28.344C292.252 28.344 291.154 28.5283 290.26 29.4227C289.366 30.317 289.181 31.4149 289.181 32.144H292.181ZM292.981 31.344V34.344H302.037V31.344V28.344H292.981V31.344ZM302.037 31.344V34.344C301.841 34.344 301.144 34.293 300.516 33.6653C299.888 33.0376 299.837 32.3398 299.837 32.144H302.837H305.837C305.837 31.4149 305.653 30.317 304.759 29.4227C303.864 28.5283 302.766 28.344 302.037 28.344V31.344ZM302.837 32.144H299.837V73.2H302.837H305.837V32.144H302.837ZM302.837 73.2H299.837C299.837 73.0042 299.888 72.3064 300.516 71.6787C301.144 71.051 301.841 71 302.037 71V74V77C302.766 77 303.864 76.8157 304.759 75.9213C305.653 75.0269 305.837 73.9291 305.837 73.2H302.837ZM302.037 74V71H292.981V74V77H302.037V74ZM292.981 74V71C293.177 71 293.875 71.051 294.503 71.6787C295.13 72.3064 295.181 73.0042 295.181 73.2H292.181H289.181C289.181 73.9291 289.366 75.0269 290.26 75.9213C291.154 76.8157 292.252 77 292.981 77V74ZM292.181 73.2H295.181V55.856H292.181H289.181V73.2H292.181ZM292.181 55.856V52.856H284.277V55.856V58.856H292.181V55.856ZM284.277 55.856H281.277V73.2H284.277H287.277V55.856H284.277ZM284.277 73.2H281.277C281.277 73.0042 281.328 72.3064 281.956 71.6787C282.584 71.051 283.281 71 283.477 71V74V77C284.206 77 285.304 76.8157 286.199 75.9213C287.093 75.0269 287.277 73.9291 287.277 73.2H284.277ZM283.477 74V71H274.421V74V77H283.477V74ZM317.44 73.456L319.625 71.3999L319.594 71.3668L319.562 71.3347L317.44 73.456ZM311.04 67.056L313.162 64.9347L313.129 64.9025L313.096 64.8714L311.04 67.056ZM326.496 66V69H329.496V66H326.496ZM318.72 74V71C318.825 71 318.995 71.0202 319.19 71.103C319.386 71.1866 319.532 71.3016 319.625 71.3999L317.44 73.456L315.256 75.5121C316.182 76.4959 317.407 77 318.72 77V74ZM317.44 73.456L319.562 71.3347L313.162 64.9347L311.04 67.056L308.919 69.1773L315.319 75.5773L317.44 73.456ZM311.04 67.056L313.096 64.8714C313.195 64.9639 313.31 65.1099 313.393 65.3066C313.476 65.5014 313.496 65.671 313.496 65.776H310.496H307.496C307.496 67.089 308 68.3146 308.984 69.2406L311.04 67.056ZM310.496 65.776H313.496V39.6H310.496H307.496V65.776H310.496ZM310.496 39.6H313.496C313.496 39.7958 313.445 40.4936 312.818 41.1213C312.19 41.749 311.492 41.8 311.296 41.8V38.8V35.8C310.567 35.8 309.469 35.9843 308.575 36.8787C307.681 37.773 307.496 38.8709 307.496 39.6H310.496ZM311.296 38.8V41.8H319.84V38.8V35.8H311.296V38.8ZM319.84 38.8V41.8C319.644 41.8 318.947 41.749 318.319 41.1213C317.691 40.4936 317.64 39.7958 317.64 39.6H320.64H323.64C323.64 38.8709 323.456 37.7731 322.562 36.8787C321.667 35.9843 320.569 35.8 319.84 35.8V38.8ZM320.64 39.6H317.64V64.496H320.64H323.64V39.6H320.64ZM320.64 64.496H317.64C317.64 65.4438 317.872 66.7087 318.864 67.7224C319.868 68.748 321.143 69 322.112 69V66V63C322.114 63 322.239 62.9992 322.435 63.0662C322.647 63.1384 322.912 63.28 323.152 63.5256C323.654 64.038 323.64 64.5509 323.64 64.496H320.64ZM322.112 66V69H326.496V66V63H322.112V66ZM326.496 66H329.496V39.6H326.496H323.496V66H326.496ZM326.496 39.6H329.496C329.496 39.7958 329.445 40.4936 328.818 41.1213C328.19 41.749 327.492 41.8 327.296 41.8V38.8V35.8C326.567 35.8 325.469 35.9843 324.575 36.8787C323.681 37.773 323.496 38.8709 323.496 39.6H326.496ZM327.296 38.8V41.8H335.84V38.8V35.8H327.296V38.8ZM335.84 38.8V41.8C335.644 41.8 334.947 41.749 334.319 41.1213C333.691 40.4936 333.64 39.7958 333.64 39.6H336.64H339.64C339.64 38.8709 339.456 37.7731 338.562 36.8787C337.667 35.9843 336.569 35.8 335.84 35.8V38.8ZM336.64 39.6H333.64V73.2H336.64H339.64V39.6H336.64ZM336.64 73.2H333.64C333.64 73.0042 333.691 72.3064 334.319 71.6787C334.947 71.051 335.644 71 335.84 71V74V77C336.569 77 337.667 76.8157 338.562 75.9213C339.456 75.0269 339.64 73.9291 339.64 73.2H336.64ZM335.84 74V71H318.72V74V77H335.84V74ZM350.841 39.344L348.525 41.2511L348.55 41.2807L348.575 41.3096L350.841 39.344ZM353.977 42.96L351.711 44.9256L353.907 47.4576L356.181 44.9956L353.977 42.96ZM357.465 39.184L359.669 41.2196L359.677 41.2112L357.465 39.184ZM362.553 47.184L365.339 48.2982L365.371 48.2163L365.399 48.1327L362.553 47.184ZM362.201 47.536L360.537 45.0399L360.478 45.0796L360.42 45.1221L362.201 47.536ZM354.265 53.392L352.484 50.9781L351.265 51.8774V53.392H354.265ZM344.921 74V71C345.117 71 345.815 71.051 346.443 71.6787C347.07 72.3064 347.121 73.0042 347.121 73.2H344.121H341.121C341.121 73.9291 341.306 75.0269 342.2 75.9213C343.094 76.8157 344.192 77 344.921 77V74ZM344.121 73.2H347.121V39.6H344.121H341.121V73.2H344.121ZM344.121 39.6H347.121C347.121 39.7958 347.07 40.4936 346.443 41.1213C345.815 41.749 345.117 41.8 344.921 41.8V38.8V35.8C344.192 35.8 343.094 35.9843 342.2 36.8787C341.306 37.773 341.121 38.8709 341.121 39.6H344.121ZM344.921 38.8V41.8H349.785V38.8V35.8H344.921V38.8ZM349.785 38.8V41.8C349.522 41.8 349.239 41.7365 348.979 41.6029C348.732 41.4755 348.588 41.3267 348.525 41.2511L350.841 39.344L353.157 37.4369C352.39 36.5052 351.235 35.8 349.785 35.8V38.8ZM350.841 39.344L348.575 41.3096L351.711 44.9256L353.977 42.96L356.244 40.9944L353.108 37.3784L350.841 39.344ZM353.977 42.96L356.181 44.9956L359.669 41.2196L357.465 39.184L355.262 37.1484L351.774 40.9244L353.977 42.96ZM357.465 39.184L359.677 41.2112C359.527 41.3749 359.315 41.5385 359.047 41.6534C358.782 41.7671 358.539 41.8 358.361 41.8V38.8V35.8C357.2 35.8 356.085 36.2506 355.254 37.1568L357.465 39.184ZM358.361 38.8V41.8H361.817V38.8V35.8H358.361V38.8ZM361.817 38.8V41.8C361.621 41.8 360.924 41.749 360.296 41.1213C359.668 40.4936 359.617 39.7958 359.617 39.6H362.617H365.617C365.617 38.8709 365.433 37.7731 364.539 36.8787C363.644 35.9843 362.546 35.8 361.817 35.8V38.8ZM362.617 39.6H359.617V46.48H362.617H365.617V39.6H362.617ZM362.617 46.48H359.617C359.617 46.5963 359.613 46.6435 359.614 46.6404C359.614 46.6372 359.617 46.6031 359.627 46.5466C359.636 46.4954 359.658 46.3828 359.707 46.2353L362.553 47.184L365.399 48.1327C365.614 47.4874 365.617 46.7979 365.617 46.48H362.617ZM362.553 47.184L359.768 46.0698C359.949 45.6174 360.201 45.3418 360.312 45.2307C360.435 45.1074 360.527 45.0464 360.537 45.0399L362.201 47.536L363.865 50.0321C364.141 49.8483 364.936 49.3037 365.339 48.2982L362.553 47.184ZM362.201 47.536L360.42 45.1221L352.484 50.9781L354.265 53.392L356.047 55.8059L363.983 49.9499L362.201 47.536ZM354.265 53.392H351.265V73.2H354.265H357.265V53.392H354.265ZM354.265 73.2H351.265C351.265 73.0042 351.316 72.3064 351.944 71.6787C352.572 71.051 353.269 71 353.465 71V74V77C354.194 77 355.292 76.8157 356.187 75.9213C357.081 75.0269 357.265 73.9291 357.265 73.2H354.265ZM353.465 74V71H344.921V74V77H353.465V74ZM366.85 74V71C367.046 71 367.743 71.051 368.371 71.6787C368.999 72.3064 369.05 73.0042 369.05 73.2H366.05H363.05C363.05 73.9291 363.234 75.0269 364.128 75.9213C365.023 76.8157 366.121 77 366.85 77V74ZM366.05 73.2H369.05V32.144H366.05H363.05V73.2H366.05ZM366.05 32.144H369.05C369.05 32.3398 368.999 33.0376 368.371 33.6653C367.743 34.293 367.046 34.344 366.85 34.344V31.344V28.344C366.121 28.344 365.023 28.5283 364.128 29.4227C363.234 30.317 363.05 31.4149 363.05 32.144H366.05ZM366.85 31.344V34.344H375.394V31.344V28.344H366.85V31.344ZM375.394 31.344V34.344C375.198 34.344 374.5 34.293 373.872 33.6653C373.245 33.0376 373.194 32.3398 373.194 32.144H376.194H379.194C379.194 31.4149 379.009 30.317 378.115 29.4227C377.221 28.5283 376.123 28.344 375.394 28.344V31.344ZM376.194 32.144H373.194V73.2H376.194H379.194V32.144H376.194ZM376.194 73.2H373.194C373.194 73.0042 373.245 72.3064 373.872 71.6787C374.5 71.051 375.198 71 375.394 71V74V77C376.123 77 377.221 76.8157 378.115 75.9213C379.009 75.0269 379.194 73.9291 379.194 73.2H376.194ZM375.394 74V71H366.85V74V77H375.394V74ZM396.878 73.904L396.089 76.7983L396.12 76.8067L396.151 76.8144L396.878 73.904ZM396.206 73.744L395.486 76.6563L395.552 76.6725L395.618 76.6857L396.206 73.744ZM390.51 72.336L389.562 75.182L389.675 75.2197L389.79 75.2483L390.51 72.336ZM383.982 70.16L383.034 73.006L383.034 73.006L383.982 70.16ZM383.566 45.744L385.622 47.9286L385.655 47.8975L385.688 47.8653L383.566 45.744ZM389.966 39.344L387.845 37.2227L387.845 37.2227L389.966 39.344ZM402.766 39.344L404.888 37.2227L402.766 39.344ZM409.166 45.744L407.045 47.8653L407.077 47.8975L407.11 47.9286L409.166 45.744ZM409.71 60.144V63.144H412.71V60.144H409.71ZM392.526 60.144V57.144H389.68L389.53 59.9863L392.526 60.144ZM392.302 64.4L389.306 64.2423L389.186 66.5286L391.36 67.248L392.302 64.4ZM396.846 65.904L395.904 68.752L396.26 68.8701L396.635 68.8966L396.846 65.904ZM405.006 66.48L405.528 63.5256L405.374 63.4985L405.217 63.4874L405.006 66.48ZM399.406 53.936L397.076 52.0466L397.06 52.0658L397.045 52.0854L399.406 53.936ZM399.406 46.928L397.045 48.7786L397.06 48.7982L397.076 48.8174L399.406 46.928ZM393.806 46.928L391.445 45.0774L391.429 45.0974L391.414 45.1177L393.806 46.928ZM393.806 53.936L391.414 55.7463L391.429 55.7666L391.445 55.7866L393.806 53.936ZM397.582 74V71C397.625 71 397.649 71.0032 397.652 71.0035C397.654 71.0039 397.639 71.002 397.606 70.9936L396.878 73.904L396.151 76.8144C396.591 76.9245 397.074 77 397.582 77V74ZM396.878 73.904L397.668 71.0097C397.374 70.9297 397.083 70.8599 396.795 70.8023L396.206 73.744L395.618 76.6857C395.756 76.7134 395.913 76.7503 396.089 76.7983L396.878 73.904ZM396.206 73.744L396.926 70.8317L391.23 69.4237L390.51 72.336L389.79 75.2483L395.486 76.6563L396.206 73.744ZM390.51 72.336L391.459 69.49L384.931 67.3139L383.982 70.16L383.034 73.006L389.562 75.182L390.51 72.336ZM383.982 70.16L384.931 67.314C385.121 67.3773 385.331 67.4874 385.527 67.6569C385.721 67.8252 385.849 68.0072 385.927 68.1577C386.066 68.4275 386.022 68.5449 386.022 68.304H383.022H380.022C380.022 69.0871 380.138 70.0259 380.598 70.9143C381.104 71.8926 381.946 72.6435 383.034 73.006L383.982 70.16ZM383.022 68.304H386.022V47.024H383.022H380.022V68.304H383.022ZM383.022 47.024H386.022C386.022 47.129 386.002 47.2986 385.919 47.4934C385.836 47.6901 385.721 47.8361 385.622 47.9286L383.566 45.744L381.51 43.5594C380.526 44.4854 380.022 45.711 380.022 47.024H383.022ZM383.566 45.744L385.688 47.8653L392.088 41.4653L389.966 39.344L387.845 37.2227L381.445 43.6227L383.566 45.744ZM389.966 39.344L392.088 41.4653C392.026 41.5271 391.908 41.622 391.732 41.697C391.553 41.7731 391.38 41.8 391.246 41.8V38.8V35.8C389.921 35.8 388.742 36.3258 387.845 37.2227L389.966 39.344ZM391.246 38.8V41.8H401.486V38.8V35.8H391.246V38.8ZM401.486 38.8V41.8C401.352 41.8 401.18 41.7731 401.001 41.697C400.824 41.622 400.707 41.5271 400.645 41.4653L402.766 39.344L404.888 37.2227C403.991 36.3258 402.812 35.8 401.486 35.8V38.8ZM402.766 39.344L400.645 41.4653L407.045 47.8653L409.166 45.744L411.288 43.6227L404.888 37.2227L402.766 39.344ZM409.166 45.744L407.11 47.9286C407.012 47.8361 406.897 47.6901 406.813 47.4934C406.73 47.2986 406.71 47.129 406.71 47.024H409.71H412.71C412.71 45.711 412.206 44.4854 411.222 43.5594L409.166 45.744ZM409.71 47.024H406.71V60.144H409.71H412.71V47.024H409.71ZM409.71 60.144V57.144H392.526V60.144V63.144H409.71V60.144ZM392.526 60.144L389.53 59.9863L389.306 64.2423L392.302 64.4L395.298 64.5577L395.522 60.3017L392.526 60.144ZM392.302 64.4L391.36 67.248L395.904 68.752L396.846 65.904L397.789 63.056L393.245 61.552L392.302 64.4ZM396.846 65.904L396.635 68.8966L404.795 69.4726L405.006 66.48L405.217 63.4874L397.057 62.9114L396.846 65.904ZM405.006 66.48L404.485 69.4344C404.075 69.3621 403.459 69.1144 403.002 68.4952C402.585 67.9319 402.55 67.3953 402.55 67.216H405.55H408.55C408.55 66.6101 408.424 65.7375 407.827 64.9288C407.188 64.0643 406.3 63.6619 405.528 63.5256L405.006 66.48ZM405.55 67.216H402.55V73.2H405.55H408.55V67.216H405.55ZM405.55 73.2H402.55C402.55 73.0042 402.601 72.3064 403.229 71.6787C403.857 71.051 404.554 71 404.75 71V74V77C405.479 77 406.577 76.8157 407.472 75.9213C408.366 75.0269 408.55 73.9291 408.55 73.2H405.55ZM404.75 74V71H397.582V74V77H404.75V74ZM396.302 55.12V58.12H396.91V55.12V52.12H396.302V55.12ZM396.91 55.12V58.12C398.832 58.12 400.553 57.3365 401.767 55.7866L399.406 53.936L397.045 52.0854C397.018 52.1205 397.003 52.1316 397.005 52.1298C397.008 52.1275 397.018 52.1202 397.032 52.1135C397.046 52.1069 397.05 52.1074 397.037 52.1102C397.023 52.1132 396.983 52.12 396.91 52.12V55.12ZM399.406 53.936L401.737 55.8254C402.932 54.3508 403.366 52.5448 403.366 50.736H400.366H397.366C397.366 51.6152 397.16 51.9425 397.076 52.0466L399.406 53.936ZM400.366 50.736H403.366V50.096H400.366H397.366V50.736H400.366ZM400.366 50.096H403.366C403.366 48.2952 402.926 46.5052 401.737 45.0386L399.406 46.928L397.076 48.8174C397.167 48.9294 397.366 49.2515 397.366 50.096H400.366ZM399.406 46.928L401.767 45.0774C400.553 43.5275 398.832 42.744 396.91 42.744V45.744V48.744C396.983 48.744 397.023 48.7508 397.037 48.7538C397.05 48.7566 397.046 48.7571 397.032 48.7505C397.018 48.7438 397.008 48.7365 397.005 48.7342C397.003 48.7324 397.018 48.7435 397.045 48.7786L399.406 46.928ZM396.91 45.744V42.744H396.27V45.744V48.744H396.91V45.744ZM396.27 45.744V42.744C394.347 42.744 392.646 43.5448 391.445 45.0774L393.806 46.928L396.167 48.7786C396.183 48.7591 396.194 48.7461 396.202 48.7383C396.21 48.7305 396.214 48.7273 396.214 48.7273C396.214 48.7272 396.213 48.7278 396.211 48.7289C396.21 48.73 396.208 48.7314 396.205 48.7332C396.2 48.7367 396.193 48.7405 396.186 48.744C396.169 48.7518 396.161 48.7531 396.168 48.7517C396.175 48.75 396.207 48.744 396.27 48.744V45.744ZM393.806 46.928L391.414 45.1177C390.308 46.5788 389.91 48.3381 389.91 50.096H392.91H395.91C395.91 49.2086 396.11 48.8558 396.198 48.7383L393.806 46.928ZM392.91 50.096H389.91V50.736H392.91H395.91V50.096H392.91ZM392.91 50.736H389.91C389.91 52.5026 390.303 54.2777 391.414 55.7463L393.806 53.936L396.198 52.1257C396.115 52.0157 395.91 51.6574 395.91 50.736H392.91ZM393.806 53.936L391.445 55.7866C392.66 57.3365 394.38 58.12 396.302 58.12V55.12V52.12C396.23 52.12 396.19 52.1132 396.175 52.1102C396.162 52.1074 396.166 52.1069 396.18 52.1135C396.194 52.1202 396.204 52.1275 396.207 52.1298C396.209 52.1316 396.195 52.1205 396.167 52.0854L393.806 53.936Z" fill="black" mask="url(#path-1-outside-1_67_4285)"/>
</svg>
