<svg xmlns="http://www.w3.org/2000/svg" version="1.1" viewBox=".0 .0 100.0 100.0">
  <path d="m82.043 17.672c-0.46484-0.68359-1.1875-1.1562-2.0039-1.3086l-38.238-7.2461c-1.7031-0.33594-3.3281 0.78906-3.6484 2.4844l-1.7539 9.2109-16.414 2.9922c-0.81641 0.14844-1.5391 0.61719-2.0078 1.2969-0.47266 0.67969-0.65234 1.5234-0.50781 2.3398l11.125 60.922c0.27344 1.5078 1.5898 2.5625 3.0703 2.5625 0.18359 0 0.375-0.015625 0.5625-0.054687l38.277-6.9766c1.6953-0.30859 2.8203-1.9336 2.5156-3.6328l-0.94531-5.1758 10.461-55.086c0.15234-0.81641-0.019531-1.6562-0.48828-2.3438zm-38.34-1.8281 9.8086 1.8555-10.527 1.918zm-9.5273 68.332-10-54.773 15.418-2.8125h0.03125l16.68-3.0469 10.004 54.773-32.133 5.8555zm34.773-26.164-7.0625-38.664c-0.003907-0.023437-0.007813-0.042968-0.011719-0.066406l13.93 2.6367-6.8516 36.09z" stroke-width="0.1"/>
<!--> <text x="0.0" y="117.5" font-size="5.0" font-weight="bold" font-family="Arbeit Regular, Helvetica, Arial-Unicode, Arial, Sans-serif" fill="#000000"></text><text x="0.0" y="122.5" font-size="5.0" font-weight="bold" font-family="Arbeit Regular, Helvetica, Arial-Unicode, Arial, Sans-serif" fill="#000000"></text> </--></svg>