<svg width="40" height="56" viewBox="0 0 40 56" fill="none" xmlns="http://www.w3.org/2000/svg">
<rect x="2.5" y="2.5" width="35" height="51" rx="5.5" fill="white" stroke="black" stroke-width="5"/>
<path d="M11.8359 40.0586C10.3906 40.0586 9.66797 39.8372 9.66797 39.3945C9.66797 39.1732 9.77865 38.8867 10 38.5352L17.168 27.3242L10.8008 17.1484C10.5794 16.7448 10.4688 16.4518 10.4688 16.2695C10.4688 16.0742 10.651 15.918 11.0156 15.8008C11.3932 15.6706 11.9466 15.6055 12.6758 15.6055H14.1016C15.2214 15.6055 15.9115 15.8268 16.1719 16.2695L20.1367 22.7344L24.2969 16.2695C24.4922 16.0091 24.7526 15.8333 25.0781 15.7422C25.4167 15.651 25.8659 15.6055 26.4258 15.6055H27.7734C29.2318 15.6055 29.9609 15.8268 29.9609 16.2695C29.9609 16.5169 29.8503 16.8099 29.6289 17.1484L23.0664 27.4023L30 38.5352C30.2083 38.8607 30.3125 39.1471 30.3125 39.3945C30.3125 39.8372 29.5833 40.0586 28.125 40.0586H26.7773C26.2174 40.0586 25.7682 40.013 25.4297 39.9219C25.0911 39.8307 24.8503 39.6549 24.707 39.3945L20.0781 31.9336L15.2734 39.3945C15.0911 39.694 14.8438 39.8828 14.5312 39.9609C14.2318 40.026 13.776 40.0586 13.1641 40.0586H11.8359Z" fill="black"/>
</svg>
