<svg width="48" height="64" viewBox="0 0 48 64" fill="none" xmlns="http://www.w3.org/2000/svg">
<rect x="10.5" y="2.5" width="35" height="51" rx="5.5" fill="#5DB834" stroke="black" stroke-width="5"/>
<rect x="2.5" y="10.5" width="35" height="51" rx="5.5" fill="#5DB834" stroke="black" stroke-width="5"/>
<mask id="path-3-outside-1_75_5827" maskUnits="userSpaceOnUse" x="5" y="22" width="30" height="29" fill="black">
<rect fill="white" x="5" y="22" width="30" height="29"/>
<path d="M19.5625 50C18.5833 50 17.8646 49.8646 17.4062 49.5938C16.9688 49.3229 16.75 48.9062 16.75 48.3438V39.875H8.375C7.79167 39.875 7.36458 39.6562 7.09375 39.2188C6.84375 38.7812 6.71875 38.0729 6.71875 37.0938V36.7188C6.71875 35.7396 6.84375 35.0312 7.09375 34.5938C7.36458 34.1562 7.79167 33.9375 8.375 33.9375H16.75V25.375C16.75 24.7917 16.9688 24.375 17.4062 24.125C17.8438 23.8542 18.5625 23.7188 19.5625 23.7188H20.3125C21.2917 23.7188 22 23.8542 22.4375 24.125C22.875 24.375 23.0938 24.7917 23.0938 25.375V33.9375H31.625C32.1875 33.9375 32.6042 34.1562 32.875 34.5938C33.1458 35.0312 33.2812 35.7396 33.2812 36.7188V37.0938C33.2812 38.0729 33.1458 38.7812 32.875 39.2188C32.6042 39.6562 32.1875 39.875 31.625 39.875H23.0938V48.3438C23.0938 48.9062 22.875 49.3229 22.4375 49.5938C22 49.8646 21.2917 50 20.3125 50H19.5625Z"/>
</mask>
<path d="M19.5625 50C18.5833 50 17.8646 49.8646 17.4062 49.5938C16.9688 49.3229 16.75 48.9062 16.75 48.3438V39.875H8.375C7.79167 39.875 7.36458 39.6562 7.09375 39.2188C6.84375 38.7812 6.71875 38.0729 6.71875 37.0938V36.7188C6.71875 35.7396 6.84375 35.0312 7.09375 34.5938C7.36458 34.1562 7.79167 33.9375 8.375 33.9375H16.75V25.375C16.75 24.7917 16.9688 24.375 17.4062 24.125C17.8438 23.8542 18.5625 23.7188 19.5625 23.7188H20.3125C21.2917 23.7188 22 23.8542 22.4375 24.125C22.875 24.375 23.0938 24.7917 23.0938 25.375V33.9375H31.625C32.1875 33.9375 32.6042 34.1562 32.875 34.5938C33.1458 35.0312 33.2812 35.7396 33.2812 36.7188V37.0938C33.2812 38.0729 33.1458 38.7812 32.875 39.2188C32.6042 39.6562 32.1875 39.875 31.625 39.875H23.0938V48.3438C23.0938 48.9062 22.875 49.3229 22.4375 49.5938C22 49.8646 21.2917 50 20.3125 50H19.5625Z" fill="white"/>
<path d="M17.4062 49.5938L16.8799 50.444L16.8887 50.4494L16.8975 50.4547L17.4062 49.5938ZM16.75 39.875H17.75V38.875H16.75V39.875ZM7.09375 39.2188L6.22551 39.7149L6.23423 39.7302L6.24348 39.7451L7.09375 39.2188ZM7.09375 34.5938L6.24348 34.0674L6.23423 34.0823L6.22551 34.0976L7.09375 34.5938ZM16.75 33.9375V34.9375H17.75V33.9375H16.75ZM17.4062 24.125L17.9024 24.9932L17.9177 24.9845L17.9326 24.9753L17.4062 24.125ZM22.4375 24.125L21.9111 24.9753L21.9261 24.9845L21.9414 24.9932L22.4375 24.125ZM23.0938 33.9375H22.0938V34.9375H23.0938V33.9375ZM23.0938 39.875V38.875H22.0938V39.875H23.0938ZM19.5625 50V49C18.6345 49 18.1375 48.8643 17.915 48.7328L17.4062 49.5938L16.8975 50.4547C17.5916 50.8648 18.5321 51 19.5625 51V50ZM17.4062 49.5938L17.9326 48.7435C17.821 48.6744 17.75 48.5986 17.75 48.3438H16.75H15.75C15.75 49.2139 16.1165 49.9714 16.8799 50.444L17.4062 49.5938ZM16.75 48.3438H17.75V39.875H16.75H15.75V48.3438H16.75ZM16.75 39.875V38.875H8.375V39.875V40.875H16.75V39.875ZM8.375 39.875V38.875C8.08308 38.875 8.00542 38.7916 7.94402 38.6924L7.09375 39.2188L6.24348 39.7451C6.72375 40.5209 7.50025 40.875 8.375 40.875V39.875ZM7.09375 39.2188L7.96199 38.7226C7.84709 38.5215 7.71875 38.0346 7.71875 37.0938H6.71875H5.71875C5.71875 38.1112 5.84041 39.041 6.22551 39.7149L7.09375 39.2188ZM6.71875 37.0938H7.71875V36.7188H6.71875H5.71875V37.0938H6.71875ZM6.71875 36.7188H7.71875C7.71875 35.7779 7.84709 35.291 7.96199 35.0899L7.09375 34.5938L6.22551 34.0976C5.84041 34.7715 5.71875 35.7013 5.71875 36.7188H6.71875ZM7.09375 34.5938L7.94402 35.1201C8.00542 35.0209 8.08308 34.9375 8.375 34.9375V33.9375V32.9375C7.50025 32.9375 6.72375 33.2916 6.24348 34.0674L7.09375 34.5938ZM8.375 33.9375V34.9375H16.75V33.9375V32.9375H8.375V33.9375ZM16.75 33.9375H17.75V25.375H16.75H15.75V33.9375H16.75ZM16.75 25.375H17.75C17.75 25.0828 17.8311 25.034 17.9024 24.9932L17.4062 24.125L16.9101 23.2568C16.1064 23.716 15.75 24.5005 15.75 25.375H16.75ZM17.4062 24.125L17.9326 24.9753C18.1221 24.858 18.6025 24.7188 19.5625 24.7188V23.7188V22.7188C18.5225 22.7188 17.5654 22.8504 16.8799 23.2747L17.4062 24.125ZM19.5625 23.7188V24.7188H20.3125V23.7188V22.7188H19.5625V23.7188ZM20.3125 23.7188V24.7188C21.2469 24.7188 21.7195 24.8566 21.9111 24.9753L22.4375 24.125L22.9639 23.2747C22.2805 22.8517 21.3365 22.7188 20.3125 22.7188V23.7188ZM22.4375 24.125L21.9414 24.9932C22.0127 25.034 22.0938 25.0828 22.0938 25.375H23.0938H24.0938C24.0938 24.5005 23.7373 23.716 22.9336 23.2568L22.4375 24.125ZM23.0938 25.375H22.0938V33.9375H23.0938H24.0938V25.375H23.0938ZM23.0938 33.9375V34.9375H31.625V33.9375V32.9375H23.0938V33.9375ZM31.625 33.9375V34.9375C31.8799 34.9375 31.9557 35.0085 32.0247 35.1201L32.875 34.5938L33.7253 34.0674C33.2527 33.304 32.4951 32.9375 31.625 32.9375V33.9375ZM32.875 34.5938L32.0247 35.1201C32.1434 35.3117 32.2812 35.7844 32.2812 36.7188H33.2812H34.2812C34.2812 35.6948 34.1483 34.7508 33.7253 34.0674L32.875 34.5938ZM33.2812 36.7188H32.2812V37.0938H33.2812H34.2812V36.7188H33.2812ZM33.2812 37.0938H32.2812C32.2812 38.0281 32.1434 38.5008 32.0247 38.6924L32.875 39.2188L33.7253 39.7451C34.1483 39.0617 34.2812 38.1177 34.2812 37.0938H33.2812ZM32.875 39.2188L32.0247 38.6924C31.9557 38.804 31.8799 38.875 31.625 38.875V39.875V40.875C32.4951 40.875 33.2527 40.5085 33.7253 39.7451L32.875 39.2188ZM31.625 39.875V38.875H23.0938V39.875V40.875H31.625V39.875ZM23.0938 39.875H22.0938V48.3438H23.0938H24.0938V39.875H23.0938ZM23.0938 48.3438H22.0938C22.0938 48.5986 22.0227 48.6744 21.9111 48.7435L22.4375 49.5938L22.9639 50.444C23.7273 49.9714 24.0938 49.2139 24.0938 48.3438H23.0938ZM22.4375 49.5938L21.9111 48.7435C21.7195 48.8621 21.2469 49 20.3125 49V50V51C21.3365 51 22.2805 50.8671 22.9639 50.444L22.4375 49.5938ZM20.3125 50V49H19.5625V50V51H20.3125V50Z" fill="black" mask="url(#path-3-outside-1_75_5827)"/>
</svg>
