<svg width="40" height="56" viewBox="0 0 40 56" fill="none" xmlns="http://www.w3.org/2000/svg">
<rect x="3" y="3" width="34" height="50" rx="5" fill="white" stroke="black" stroke-width="6"/>
<path d="M19.5625 42C18.5833 42 17.8646 41.8646 17.4062 41.5938C16.9688 41.3229 16.75 40.9062 16.75 40.3438V31.875H8.375C7.79167 31.875 7.36458 31.6562 7.09375 31.2188C6.84375 30.7812 6.71875 30.0729 6.71875 29.0938V28.7188C6.71875 27.7396 6.84375 27.0312 7.09375 26.5938C7.36458 26.1562 7.79167 25.9375 8.375 25.9375H16.75V17.375C16.75 16.7917 16.9688 16.375 17.4062 16.125C17.8438 15.8542 18.5625 15.7188 19.5625 15.7188H20.3125C21.2917 15.7188 22 15.8542 22.4375 16.125C22.875 16.375 23.0938 16.7917 23.0938 17.375V25.9375H31.625C32.1875 25.9375 32.6042 26.1562 32.875 26.5938C33.1458 27.0312 33.2812 27.7396 33.2812 28.7188V29.0938C33.2812 30.0729 33.1458 30.7812 32.875 31.2188C32.6042 31.6562 32.1875 31.875 31.625 31.875H23.0938V40.3438C23.0938 40.9062 22.875 41.3229 22.4375 41.5938C22 41.8646 21.2917 42 20.3125 42H19.5625Z" fill="black"/>
</svg>
