<svg xmlns="http://www.w3.org/2000/svg" version="1.1" viewBox="-.0 -0.0 100.0 100.0">
    <path d="m91.379 68.422c-0.66016-0.38281-1.5078-0.15625-1.8906 0.50781l-1.0625 1.8359-21.148-45.109c-0.023438-0.046875-0.050782-0.09375-0.078125-0.13672-0.003907-0.003906-0.003907-0.011719-0.007813-0.015625 0-0.003906-0.003906-0.003906-0.003906-0.003906-0.007812-0.011719-0.015625-0.023438-0.027344-0.039062-0.011718-0.019532-0.027344-0.039063-0.042968-0.058594-0.03125-0.042969-0.066407-0.082032-0.10547-0.12109-0.023438-0.023438-0.046875-0.046875-0.074219-0.070312-0.027344-0.023438-0.058594-0.046876-0.085938-0.070313-0.050781-0.039063-0.10156-0.074219-0.15625-0.10547-0.007812-0.003906-0.011718-0.007812-0.019531-0.011718-0.019531-0.011719-0.042969-0.023438-0.066406-0.03125-0.007813-0.003907-0.011719-0.007813-0.019531-0.011719-0.050782-0.023438-0.10547-0.042969-0.16016-0.058594-0.015626-0.003906-0.03125-0.007813-0.046876-0.011719h-0.003906c-0.007812-0.003906-0.015625-0.003906-0.023437-0.007812-0.046875-0.011719-0.089844-0.023438-0.13672-0.027344-0.066406-0.007812-0.13281-0.015625-0.19922-0.015625h-32.047c-0.53516 0-1.0234 0.30859-1.2539 0.79688l-21.148 45.109-1.0625-1.8359c-0.38281-0.66016-1.2266-0.88672-1.8906-0.50781-0.66016 0.38281-0.89063 1.2266-0.50781 1.8906l2.3867 4.1328c0.003906 0.007813 0.011718 0.015626 0.019531 0.023438 0.003906 0.007812 0.007813 0.019531 0.011719 0.027344 0.035156 0.054687 0.082031 0.097656 0.12109 0.14844 0.03125 0.035157 0.054687 0.078125 0.089843 0.10938 0.054688 0.050782 0.11719 0.089844 0.17578 0.13281 0.035157 0.023437 0.066407 0.054687 0.10547 0.078125 0.078125 0.042968 0.16016 0.074218 0.24609 0.10156 0.027344 0.007813 0.050781 0.023438 0.078125 0.03125 0.10547 0.027344 0.21484 0.039063 0.32812 0.042969 0.007813 0 0.015625 0.003906 0.023437 0.003906l32.059-0.003906h15.805 0.003906 0.007812 28.727c0.007813 0 0.015625-0.003906 0.023437-0.003906 0.11328 0 0.22266-0.015625 0.32813-0.042969 0.027343-0.007812 0.050781-0.023438 0.078124-0.03125 0.085938-0.027344 0.16797-0.058594 0.24609-0.10156 0.039063-0.019532 0.070313-0.050782 0.10547-0.078126 0.0625-0.042968 0.12109-0.082031 0.17578-0.13281 0.035156-0.03125 0.058594-0.074219 0.089844-0.10938 0.042969-0.046875 0.085938-0.09375 0.12109-0.14844 0.003906-0.007813 0.007812-0.019532 0.011718-0.027344 0.003907-0.007813 0.011719-0.015625 0.019532-0.023438l2.3867-4.1328c0.38281-0.66016 0.15625-1.5078-0.50781-1.8906zm-45.449 3.9492 2.4219-5.1641 16.359-34.895c-0.027344 17.293-2.0547 30.742-6.0508 40.059zm19.168-11.996c1.125 4.6641 2.7578 8.7734 4.7852 11.996h-8.2266c1.3984-3.4922 2.5469-7.5 3.4414-11.996zm-30.246-32.746h28.996l-20.223 43.137-1.0625-1.8359c-0.38281-0.66016-1.2266-0.88672-1.8906-0.50781-0.66016 0.38281-0.89062 1.2266-0.50781 1.8906l1.1875 2.0586h-27.477zm38.387 44.742c-3.4492-4.6055-5.9727-12.277-6.7891-20.727 0.66406-5.7383 1.0078-12.09 1.0273-19.047l18.645 39.773z"
    />
</svg>